<svg width="32" height="32" viewBox="0 0 32 32" fill="none" xmlns="http://www.w3.org/2000/svg">
<g clip-path="url(#clip0_2122_20772)">
<path d="M25.6004 16.0586C25.6004 10.7242 21.3023 6.3999 16.0004 6.3999C10.6985 6.3999 6.40039 10.7242 6.40039 16.0586C6.40039 20.8794 9.91095 24.8753 14.5004 25.5999V18.8505H12.0629V16.0586H14.5004V13.9306C14.5004 11.5099 15.9336 10.1728 18.1265 10.1728C19.1768 10.1728 20.2754 10.3615 20.2754 10.3615V12.7384H19.0649C17.8724 12.7384 17.5004 13.483 17.5004 14.2468V16.0586H20.1629L19.7373 18.8505H17.5004V25.5999C22.0898 24.8753 25.6004 20.8796 25.6004 16.0586Z" fill="white"/>
</g>
<defs>
<clipPath id="clip0_2122_20772">
<rect width="19.2" height="19.2" fill="white" transform="translate(6.40039 6.3999)"/>
</clipPath>
</defs>
</svg>
