<svg width="32" height="32" viewBox="0 0 32 32" fill="none" xmlns="http://www.w3.org/2000/svg">
<g clip-path="url(#clip0_2122_20776)">
<path d="M16.0004 8.12949C18.5639 8.12949 18.8672 8.1394 19.8797 8.18551C20.8156 8.22819 21.324 8.38443 21.6624 8.5159C22.1105 8.69005 22.4302 8.89811 22.7663 9.23384C23.1025 9.56994 23.3105 9.88967 23.4843 10.3378C23.6158 10.6762 23.772 11.1846 23.8147 12.1205C23.8608 13.1326 23.8707 13.4363 23.8707 15.9998C23.8707 18.5633 23.8608 18.8666 23.8147 19.8791C23.772 20.815 23.6158 21.3234 23.4843 21.6618C23.3101 22.1099 23.1021 22.4296 22.7663 22.7658C22.4302 23.1019 22.1105 23.3099 21.6624 23.4837C21.324 23.6152 20.8156 23.7714 19.8797 23.8141C18.8676 23.8602 18.5639 23.8701 16.0004 23.8701C13.4369 23.8701 13.1332 23.8602 12.1211 23.8141C11.1851 23.7714 10.6768 23.6152 10.3384 23.4837C9.89026 23.3095 9.57054 23.1015 9.23443 22.7658C8.89833 22.4296 8.69026 22.1099 8.51649 21.6618C8.38502 21.3234 8.22878 20.815 8.1861 19.8791C8.13999 18.867 8.13008 18.5633 8.13008 15.9998C8.13008 13.4363 8.13999 13.133 8.1861 12.1205C8.22878 11.1846 8.38502 10.6762 8.51649 10.3378C8.69064 9.88967 8.89871 9.56994 9.23443 9.23384C9.57016 8.89773 9.89026 8.68967 10.3384 8.5159C10.6768 8.38443 11.1851 8.22819 12.1211 8.18551C13.1332 8.1394 13.4369 8.12949 16.0004 8.12949ZM16.0004 6.3998C13.3931 6.3998 13.0661 6.41085 12.0422 6.45772C11.0205 6.50421 10.3224 6.66655 9.71192 6.90396C9.08048 7.14937 8.54507 7.47747 8.01157 8.01135C7.47768 8.54524 7.14958 9.08027 6.90417 9.7117C6.66714 10.3222 6.5048 11.0199 6.45831 12.0416C6.41144 13.0655 6.40039 13.3925 6.40039 15.9998C6.40039 18.6071 6.41144 18.9341 6.45831 19.958C6.5048 20.9797 6.66714 21.6778 6.90455 22.2883C7.14996 22.9197 7.47807 23.4551 8.01195 23.9886C8.54583 24.5225 9.08086 24.8506 9.7123 25.096C10.3228 25.3334 11.0209 25.4958 12.0426 25.5423C13.0665 25.5891 13.3935 25.6002 16.0008 25.6002C18.6081 25.6002 18.935 25.5891 19.959 25.5423C20.9806 25.4958 21.6788 25.3334 22.2892 25.096C22.9207 24.8506 23.4561 24.5225 23.9896 23.9886C24.5235 23.4547 24.8516 22.9197 25.097 22.2883C25.3344 21.6778 25.4967 20.9797 25.5432 19.958C25.5901 18.9341 25.6012 18.6071 25.6012 15.9998C25.6012 13.3925 25.5901 13.0655 25.5432 12.0416C25.4967 11.0199 25.3344 10.3218 25.097 9.71132C24.8516 9.07988 24.5235 8.54448 23.9896 8.01097C23.4557 7.47709 22.9207 7.14899 22.2892 6.90357C21.6788 6.66617 20.9806 6.50383 19.959 6.45734C18.935 6.41047 18.6081 6.39941 16.0008 6.39941L16.0004 6.3998Z" fill="white"/>
<path d="M16.0009 11.0703C13.2781 11.0703 11.0713 13.2775 11.0713 15.9999C11.0713 18.7223 13.2785 20.9294 16.0009 20.9294C18.7232 20.9294 20.9304 18.7223 20.9304 15.9999C20.9304 13.2775 18.7232 11.0703 16.0009 11.0703ZM16.0009 19.2001C14.2334 19.2001 12.801 17.7673 12.801 16.0003C12.801 14.2332 14.2338 12.8004 16.0009 12.8004C17.7679 12.8004 19.2007 14.2332 19.2007 16.0003C19.2007 17.7673 17.7679 19.2001 16.0009 19.2001Z" fill="white"/>
<path d="M21.1256 12.0271C21.7618 12.0271 22.2776 11.5114 22.2776 10.8751C22.2776 10.2389 21.7618 9.72314 21.1256 9.72314C20.4894 9.72314 19.9736 10.2389 19.9736 10.8751C19.9736 11.5114 20.4894 12.0271 21.1256 12.0271Z" fill="white"/>
</g>
<defs>
<clipPath id="clip0_2122_20776">
<rect width="19.2" height="19.2" fill="white" transform="translate(6.40039 6.3999)"/>
</clipPath>
</defs>
</svg>
