<svg width="32" height="32" viewBox="0 0 32 32" fill="none" xmlns="http://www.w3.org/2000/svg">
<path d="M25.9674 11.0485C25.7277 10.1629 25.024 9.46697 24.1285 9.22991C22.5053 8.7998 16.0006 8.7998 16.0006 8.7998C16.0006 8.7998 9.49588 8.7998 7.87441 9.22991C6.97892 9.46697 6.2752 10.1629 6.03549 11.0485C5.60059 12.6521 5.60059 15.9998 5.60059 15.9998C5.60059 15.9998 5.60059 19.3475 6.03549 20.9511C6.2752 21.8367 6.97892 22.5326 7.87441 22.7697C9.49588 23.1998 16.0006 23.1998 16.0006 23.1998C16.0006 23.1998 22.5053 23.1998 24.1268 22.7697C25.0222 22.5326 25.726 21.8367 25.9657 20.9511C26.4006 19.3475 26.4006 15.9998 26.4006 15.9998C26.4006 15.9998 26.4006 12.6521 25.9657 11.0485H25.9674ZM13.9202 19.085V12.9146L19.324 15.9998L13.9202 19.085Z" fill="white"/>
</svg>
