<svg width="32" height="32" viewBox="0 0 32 32" fill="none" xmlns="http://www.w3.org/2000/svg">
<g clip-path="url(#clip0_2122_20767)">
<path d="M24.3 12.6212C24.3121 12.7829 24.3121 12.9445 24.3121 13.1077C24.3121 18.0798 20.2153 23.814 12.7242 23.814V23.8111C10.5113 23.814 8.34435 23.2284 6.48145 22.1242C6.80322 22.1599 7.12661 22.1778 7.4508 22.1785C9.28467 22.18 11.0661 21.6115 12.5089 20.5647C10.7661 20.5341 9.2379 19.4843 8.70403 17.9516C9.31451 18.0604 9.94354 18.038 10.5427 17.8868C8.64274 17.5321 7.2758 15.9898 7.2758 14.1985C7.2758 14.1822 7.2758 14.1665 7.2758 14.1509C7.84193 14.4422 8.4758 14.6039 9.12419 14.6218C7.33467 13.5168 6.78306 11.3172 7.8637 9.59756C9.93145 11.9483 12.9823 13.3774 16.2573 13.5287C15.929 12.2218 16.3774 10.8523 17.4355 9.9336C19.0758 8.50898 21.6556 8.582 23.1976 10.0968C24.1097 9.93062 24.9839 9.62141 25.7839 9.18329C25.4798 10.0543 24.8435 10.7942 23.9935 11.2643C24.8008 11.1764 25.5895 10.9767 26.3323 10.672C25.7855 11.429 25.0968 12.0884 24.3 12.6212Z" fill="white"/>
</g>
<defs>
<clipPath id="clip0_2122_20767">
<rect width="20" height="15.2" fill="white" transform="translate(6.40039 8.7998)"/>
</clipPath>
</defs>
</svg>
